<svg xmlns="http://www.w3.org/2000/svg" xmlns:xlink="http://www.w3.org/1999/xlink" viewBox="0 0 183.23 133.46"><defs><style>.cls-1,.cls-10,.cls-3{fill:#000;}.cls-1{opacity:0.35;}.cls-2{fill:none;stroke:#fff;stroke-linecap:round;stroke-linejoin:round;stroke-width:1.82px;}.cls-3,.cls-9{opacity:0.67;}.cls-4,.cls-9{fill:#f1f1f1;}.cls-5{fill:url(#linear-gradient);}.cls-6{fill:url(#linear-gradient-2);}.cls-7{fill:url(#linear-gradient-3);}.cls-8{fill:url(#linear-gradient-4);}</style><linearGradient id="linear-gradient" x1="45.82" y1="67.23" x2="61.65" y2="67.23" gradientUnits="userSpaceOnUse"><stop offset="0" stop-color="#fff" stop-opacity="0.7"/><stop offset="0.66" stop-color="#fff" stop-opacity="0.23"/><stop offset="1" stop-color="#fff" stop-opacity="0"/></linearGradient><linearGradient id="linear-gradient-2" x1="45.82" y1="50.64" x2="61.65" y2="50.64" xlink:href="#linear-gradient"/><linearGradient id="linear-gradient-3" x1="119.16" y1="116.98" x2="134.99" y2="116.98" xlink:href="#linear-gradient"/><linearGradient id="linear-gradient-4" x1="119.16" y1="100.4" x2="134.99" y2="100.4" xlink:href="#linear-gradient"/></defs><title>3</title><g id="Layer_2" data-name="Layer 2"><g id="Layer_2-2" data-name="Layer 2"><rect class="cls-1" x="13.9" y="0.81" width="168.47" height="16.9"/><rect class="cls-2" x="140.22" y="17.71" width="42.11" height="114.84"/><rect class="cls-3" x="14.88" y="28.45" width="46.35" height="11.21"/><rect class="cls-4" x="61.23" y="45.04" width="15.83" height="11.21"/><rect class="cls-5" x="45.82" y="61.62" width="15.83" height="11.21"/><rect class="cls-6" x="45.82" y="45.04" width="15.83" height="11.21"/><rect class="cls-7" x="119.16" y="111.38" width="15.83" height="11.21"/><rect class="cls-8" x="119.16" y="94.8" width="15.83" height="11.21"/><rect class="cls-9" x="61.23" y="61.62" width="47.56" height="11.21"/><rect class="cls-10" x="134.84" y="94.8" width="15.83" height="11.21"/><rect class="cls-9" x="134.84" y="111.38" width="47.53" height="11.21"/><rect class="cls-4" x="108.49" y="78.21" width="26.66" height="11.21"/><circle class="cls-10" cx="63.5" cy="80.48" r="2.27"/><circle class="cls-10" cx="56" cy="9.26" r="2.27"/><circle class="cls-10" cx="98.11" cy="9.26" r="2.27"/><circle class="cls-10" cx="140.22" cy="9.26" r="2.27"/><circle class="cls-10" cx="71.41" cy="80.48" r="2.27"/><circle class="cls-10" cx="20.45" cy="47.31" r="2.27"/><circle class="cls-10" cx="28.36" cy="47.31" r="2.27"/><circle class="cls-10" cx="79.33" cy="80.48" r="2.27"/><circle class="cls-10" cx="87.24" cy="80.48" r="2.27"/><path class="cls-10" d="M5.68,30.76H.91a.91.91,0,0,0-.91.91v4.77a.91.91,0,0,0,.91.91H5.68a.91.91,0,0,0,.91-.91V31.67A.91.91,0,0,0,5.68,30.76Zm-.91,4.77h-3v-3h3Z"/><path class="cls-10" d="M5.68,47.35H.91a.91.91,0,0,0-.91.91V53a.91.91,0,0,0,.91.91H5.68A.91.91,0,0,0,6.59,53V48.26A.91.91,0,0,0,5.68,47.35Zm-.91,4.77h-3v-3h3Z"/><path class="cls-10" d="M5.68,63.93H.91a.91.91,0,0,0-.91.91v4.77a.91.91,0,0,0,.91.91H5.68a.91.91,0,0,0,.91-.91V64.84A.91.91,0,0,0,5.68,63.93Zm-.91,4.77h-3v-3h3Z"/><path class="cls-10" d="M5.68,80.52H.91a.91.91,0,0,0-.91.91V86.2a.91.91,0,0,0,.91.91H5.68a.91.91,0,0,0,.91-.91V81.43A.91.91,0,0,0,5.68,80.52Zm-.91,4.77h-3v-3h3Z"/><path class="cls-10" d="M5.68,97.1H.91A.91.91,0,0,0,0,98v4.77a.91.91,0,0,0,.91.91H5.68a.91.91,0,0,0,.91-.91V98A.91.91,0,0,0,5.68,97.1Zm-.91,4.77h-3v-3h3Z"/><path class="cls-10" d="M5.68,113.69H.91a.91.91,0,0,0-.91.91v4.77a.91.91,0,0,0,.91.91H5.68a.91.91,0,0,0,.91-.91V114.6A.91.91,0,0,0,5.68,113.69Zm-.91,4.77h-3v-3h3Z"/><path class="cls-10" d="M183.18.81a.81.81,0,0,0-.81-.81H13.9a.81.81,0,0,0-.81.81V132.55a.81.81,0,0,0,.81.81H55.61a.89.89,0,0,0,.39.1h84.21a.89.89,0,0,0,.39-.1h41.72a.81.81,0,0,0,.81-.81V17.92a.79.79,0,0,0,0-.21ZM14.71,1.63H181.55V16.9H140.61a.89.89,0,0,0-.39-.1H56a.89.89,0,0,0-.39.1H14.71Zm42.2,17H97.2v113H56.91Zm82.39,113H99v-113h40.29ZM14.71,18.52H55.09V131.74H14.71Zm166.8,113.22H141.13V18.52h40.38Z"/></g></g></svg>