<svg xmlns="http://www.w3.org/2000/svg" xmlns:xlink="http://www.w3.org/1999/xlink" viewBox="0 0 271.75 199.25"><defs><style>.cls-1{fill:url(#linear-gradient);}.cls-2{fill:url(#linear-gradient-2);}.cls-3{fill:url(#linear-gradient-3);}.cls-4{fill:url(#linear-gradient-4);}.cls-5,.cls-7{fill:#000;}.cls-5{opacity:0.53;}.cls-6{fill:none;stroke:#fff;stroke-linecap:round;stroke-linejoin:round;stroke-width:2.27px;}</style><linearGradient id="linear-gradient" x1="-26.89" y1="164.08" x2="-45.11" y2="197.84" gradientTransform="translate(153.63 286.3) rotate(180)" gradientUnits="userSpaceOnUse"><stop offset="0" stop-color="#fff"/><stop offset="0.1" stop-color="#fff" stop-opacity="0.82"/><stop offset="0.23" stop-color="#fff" stop-opacity="0.6"/><stop offset="0.37" stop-color="#fff" stop-opacity="0.42"/><stop offset="0.5" stop-color="#fff" stop-opacity="0.27"/><stop offset="0.63" stop-color="#fff" stop-opacity="0.15"/><stop offset="0.76" stop-color="#fff" stop-opacity="0.07"/><stop offset="0.88" stop-color="#fff" stop-opacity="0.02"/><stop offset="1" stop-color="#fff" stop-opacity="0"/></linearGradient><linearGradient id="linear-gradient-2" x1="138.45" y1="164.08" x2="120.23" y2="197.84" gradientTransform="matrix(1, 0, 0, -1, -47.22, 286.3)" xlink:href="#linear-gradient"/><linearGradient id="linear-gradient-3" x1="-26.89" y1="115.88" x2="-45.11" y2="149.64" gradientTransform="matrix(-1, 0, 0, 1, 153.63, 0)" xlink:href="#linear-gradient"/><linearGradient id="linear-gradient-4" x1="138.45" y1="115.88" x2="120.23" y2="149.64" gradientTransform="translate(-47.22)" xlink:href="#linear-gradient"/></defs><title>2</title><g id="Layer_2" data-name="Layer 2"><g id="Layer_2-2" data-name="Layer 2"><polygon class="cls-1" points="271.75 79.2 203.96 119.55 135.72 79.2 203.51 38.85 271.75 79.2"/><polygon class="cls-2" points="0 79.2 67.79 119.55 136.03 79.2 68.24 38.85 0 79.2"/><polygon class="cls-3" points="271.75 158.9 203.96 118.55 135.72 158.9 203.51 199.25 271.75 158.9"/><polygon class="cls-4" points="0 158.9 67.79 118.55 136.03 158.9 68.24 199.25 0 158.9"/><polygon class="cls-5" points="90.57 53.61 112.73 40.49 157.72 66.47 157.72 119.7 135.94 132.27 113.45 119.2 113.45 92.96 90.57 79.84 90.57 53.61"/><line class="cls-6" x1="136.03" y1="79.84" x2="157.72" y2="67.23"/><polyline class="cls-6" points="109.18 90.52 136.02 106.08 157.72 93.47"/><path class="cls-7" d="M204.87,40.49a1.13,1.13,0,0,0-.08-.39l0-.1a1.13,1.13,0,0,0-.2-.3l0,0a1.13,1.13,0,0,0-.2-.16L136.14.15a1.13,1.13,0,0,0-1.14,0L67.28,39.51a1.13,1.13,0,0,0-.23.17h0a1.13,1.13,0,0,0-.22.32l0,.09a1.12,1.12,0,0,0-.08.39h0V119s0,0,0,.06a1.13,1.13,0,0,0,.56,1.14l68.17,39.36.1,0,.07,0a1.13,1.13,0,0,0,.4.08h0a1.12,1.12,0,0,0,.36-.07l.13-.05.06,0,21.1-12.26h0a1.12,1.12,0,0,0,1-.6l45.6-26.5a1.13,1.13,0,0,0,.55-1.14s0,0,0-.06V40.49ZM179.16,27.61l-20.43,11.8-20.84-12,20.35-11.85Zm-44.27,76.5L114.58,92.39V68.78L134.89,80.5Zm0,2.62v23.61l-20.31-11.72V95ZM136,78.53,115.57,66.73l20.17-11.64,20.38,11.77ZM115.18,40.59,135.6,28.7l20.83,12L135.93,52.57ZM135.57,2.45,156,14.22,135.62,26.07,115.21,14.28ZM112.94,15.6l20.41,11.78-20.44,11.9L92.48,27.49ZM89.44,130.35,69,118.54V94.93l20.45,11.81Zm0-26.24L69,92.31V68.69L89.44,80.5Zm0-26.24L69,66.07V42.46L89.44,54.26ZM70.12,40.49,90.22,28.8l20.43,11.8L90.57,52.29Zm42.19,103.07-20.76-12a1.1,1.1,0,0,0,.16-.55V108l20.6,11.89Zm0-26.24-20.6-11.89V81.81l20.6,11.89Zm0-26.24L91.71,79.19V55.57l.5.29,20,11.52a1.12,1.12,0,0,0,.15.19ZM94.15,54.36l-1.31-.76,20.08-11.69,20.54,11.86L113.3,65.41Zm20.43,66.89L134.89,133v23.61l-20.31-11.72Zm42,24-19.42,11.29V133l19.42-11.29Zm0-26.24-19.42,11.29V106.73l19.42-11.29Zm0-26.24L137.16,104.1V80.49L156.59,69.2Zm1.78-27.27-.08-.06L138.2,53.88,158.71,42l20.11,11.61ZM179.46,132l-20.6,12V120.36l20.6-12Zm0-26.24-20.6,12V94.12l20.6-12Zm0-26.24-20.6,12V67.88l20.6-12ZM161,40.72l20.43-11.8,20,11.57L181.11,52.33Zm41.6,77.83-20.87,12.13V107.06L202.6,94.94Zm0-26.24-20.87,12.13V80.83L202.6,68.7Zm0-26.24L181.73,78.2V54.59L202.6,42.47Z"/></g></g></svg>