<svg xmlns="http://www.w3.org/2000/svg" xmlns:xlink="http://www.w3.org/1999/xlink" viewBox="0 0 160.44 168.81"><defs><style>.cls-1{fill:none;stroke:#000;stroke-linecap:round;stroke-linejoin:round;stroke-width:2.09px;}.cls-2{fill:url(#linear-gradient);}.cls-3,.cls-4,.cls-5,.cls-6,.cls-7{fill:#000;}.cls-3{opacity:0.67;}.cls-4{opacity:0.71;}.cls-5{opacity:0.39;}.cls-6{opacity:0.51;}.cls-8{fill:url(#linear-gradient-2);}</style><linearGradient id="linear-gradient" x1="42.79" y1="18.12" x2="57.13" y2="44.45" gradientUnits="userSpaceOnUse"><stop offset="0" stop-color="#fff"/><stop offset="0.03" stop-color="#fff" stop-opacity="0.92"/><stop offset="0.1" stop-color="#fff" stop-opacity="0.73"/><stop offset="0.17" stop-color="#fff" stop-opacity="0.56"/><stop offset="0.25" stop-color="#fff" stop-opacity="0.41"/><stop offset="0.33" stop-color="#fff" stop-opacity="0.28"/><stop offset="0.42" stop-color="#fff" stop-opacity="0.18"/><stop offset="0.52" stop-color="#fff" stop-opacity="0.1"/><stop offset="0.63" stop-color="#fff" stop-opacity="0.04"/><stop offset="0.77" stop-color="#fff" stop-opacity="0.01"/><stop offset="1" stop-color="#fff" stop-opacity="0"/></linearGradient><linearGradient id="linear-gradient-2" x1="68.75" y1="149.97" x2="51.91" y2="126.63" xlink:href="#linear-gradient"/></defs><title>1</title><g id="Layer_2" data-name="Layer 2"><g id="Layer_2-2" data-name="Layer 2"><path class="cls-1" d="M140.44,129.61"/><path class="cls-1" d="M144.64,57.5"/><path class="cls-2" d="M4,43.69c1.36-.43,3.21-.3,5.75.87,9.32,4.28,9.13,16.3,9.13,16.3L93.57,18.44s.19-12-9.13-16.3C81,.57,78.84.88,77.45,1.9l.64-.39L3.33,43.94"/><path class="cls-3" d="M154.92,143.19a4.91,4.91,0,0,1,2.23-3.86,1.89,1.89,0,0,1,1.13-.29c.06-.09.1-.15.11-.14l-59.88-34.8-.18-.08-.15,0h0l-.13,0h-.32l-.1,0-.09,0-.09,0-.07,0h0l-.09,0-.09,0-.09,0-.09,0-.07,0a4.91,4.91,0,0,0-2.23,3.86,1.57,1.57,0,0,0,.65,1.44l59.88,34.8,0,0A1.86,1.86,0,0,1,154.92,143.19Z"/><polyline class="cls-4" points="59.29 37.97 31.78 53.85 31.8 60.5 59.3 44.62 59.29 37.97"/><polyline class="cls-5" points="59.34 53.72 31.83 69.6 31.85 76.24 59.36 60.36 59.34 53.72"/><polyline class="cls-4" points="84.24 39.34 64.53 50.72 64.55 57.37 84.26 45.99 84.24 39.34"/><polyline class="cls-4" points="41.49 74.09 31.86 79.65 31.88 86.3 41.51 80.74 41.49 74.09"/><polyline class="cls-6" points="57.08 65.1 44.24 72.51 44.26 79.16 57.09 71.74 57.08 65.1"/><polyline class="cls-5" points="84.27 49.4 60.43 63.16 60.45 69.81 84.29 56.05 84.27 49.4"/><polyline class="cls-5" points="45.64 81.86 31.89 89.8 31.91 96.45 45.66 88.51 45.64 81.86"/><polyline class="cls-4" points="60.46 73.31 48.4 80.27 48.41 86.92 60.48 79.95 60.46 73.31"/><polyline class="cls-6" points="70.89 67.28 63.83 71.36 63.85 78.01 70.91 73.93 70.89 67.28"/><polyline class="cls-6" points="41.55 94.27 31.92 99.83 31.94 106.48 41.57 100.92 41.55 94.27"/><polyline class="cls-5" points="57.13 85.27 44.29 92.69 44.31 99.33 57.15 91.92 57.13 85.27"/><polyline class="cls-4" points="84.33 69.57 60.49 83.33 60.51 89.98 84.34 76.22 84.33 69.57"/><polyline class="cls-4" points="45.7 102.04 31.95 109.98 31.97 116.62 45.72 108.68 45.7 102.04"/><polyline class="cls-6" points="60.52 93.48 48.45 100.45 48.47 107.09 60.54 100.13 60.52 93.48"/><polyline class="cls-5" points="70.95 87.46 63.88 91.54 63.9 98.18 70.97 94.11 70.95 87.46"/><path class="cls-7" d="M83.07,108.79,62.79,120.49a1.92,1.92,0,0,0-.87,1.5c0,.55.39.78.87.5l20.28-11.71a1.92,1.92,0,0,0,.87-1.51c0-.55-.39-.78-.87-.5"/><path class="cls-7" d="M67.12,110.8a3.77,3.77,0,0,1,.19-.79,2.41,2.41,0,0,1,.14-.3,6.56,6.56,0,0,1-.33,1.1m-5.06,1.7a20.46,20.46,0,0,1,2.69-8.31,6.76,6.76,0,0,1,.54-.81,2,2,0,0,1,.48-.46.33.33,0,0,1,.19-.05.18.18,0,0,1,.18.12,1.07,1.07,0,0,1,.07.45,4,4,0,0,1-.13.94,22.53,22.53,0,0,1-2.87,6.39c-.36.58-.75,1.15-1.15,1.72m3.7-10.8a3.83,3.83,0,0,0-1,.94,8.76,8.76,0,0,0-.76,1.14,22,22,0,0,0-3,10.15V114c-.72.94-1.47,1.84-2.23,2.71q-1.7,1.95-3.48,3.75a1,1,0,0,0-.3,1c.08.2.28.24.5.11a.89.89,0,0,0,.19-.15q1.83-1.84,3.57-3.84c.63-.72,1.26-1.47,1.87-2.24a2,2,0,0,0,.36.82c.53.66,1.47.61,2.39.11l.13-.07A8.58,8.58,0,0,0,66.28,114a.72.72,0,0,0,.18.14,1,1,0,0,0,.69,0,2.68,2.68,0,0,0,.69-.29l.08,0a11.37,11.37,0,0,0,2.4-2.15c.73-.82,1.4-1.64,2.08-2.3a12.35,12.35,0,0,1,2.54-1.93,15.26,15.26,0,0,1,2.4-1.11c1.69-.62,3.37-1,5.15-1.61A23.56,23.56,0,0,0,86,103c.42-.24.84-.49,1.26-.77a1.17,1.17,0,0,0,.5-.94c0-.31-.26-.42-.54-.26l0,0c-.39.25-.79.5-1.19.73a22,22,0,0,1-3.37,1.6c-1.69.63-3.37,1-5.15,1.62a16.33,16.33,0,0,0-2.59,1.19,14.16,14.16,0,0,0-2.9,2.21c-.78.77-1.49,1.64-2.16,2.39a9.42,9.42,0,0,1-2,1.79l-.05,0,0,0a1.37,1.37,0,0,1-.35.15.32.32,0,0,1-.24,0,.19.19,0,0,1-.07-.06,12.35,12.35,0,0,0,.79-1.55,7.61,7.61,0,0,0,.68-2.9v-.18c0-.29-.21-.42-.46-.31l-.19.1a3.16,3.16,0,0,0-.95.91,4.82,4.82,0,0,0-.62,1.18,7.52,7.52,0,0,0-.39,2.16c0,.19,0,.41,0,.62s0,.12,0,.18l-.22.29A6.64,6.64,0,0,1,64,114.91h0l-.09.05c-.62.34-1.24.34-1.53,0A1.74,1.74,0,0,1,62,114c.65-.88,1.28-1.79,1.86-2.72a24.86,24.86,0,0,0,3.17-7.09,5.65,5.65,0,0,0,.18-1.37,2,2,0,0,0-.17-.89.72.72,0,0,0-.65-.44,1.31,1.31,0,0,0-.69.2"/><path class="cls-7" d="M159.26,138.33h0a1,1,0,0,0-.34-.33h0L99,103.2a2.18,2.18,0,0,0-.36-.17L98.4,103h-.13l-2.88-.88V18.46c0-.52.09-12.75-9.74-17.27-3-1.36-5.42-1.55-7.32-.58L3.59,43l0,0c-.13.07-.26.12-.38.2C.09,45.22,0,49.76,0,50a1,1,0,0,0,1.57.91l9-5.13c8.08,4.14,8,15,8,15.11v89.76c0,6.17,2.81,11.29,8.85,16.11a8.52,8.52,0,0,0,5.22,2.08,5.67,5.67,0,0,0,3.24-1l74-42,.17-.08a6.92,6.92,0,0,0,3.3-4.52l41.2,23.94a2.12,2.12,0,0,0,.53.44,2.19,2.19,0,0,0,1.1.29,3.09,3.09,0,0,0,1.53-.45,5.9,5.9,0,0,0,2.75-4.77A2.58,2.58,0,0,0,159.26,138.33Zm-63.94-34.1h0l0,.05a6.09,6.09,0,0,0-.42.5l-.16.24c-.08.12-.17.24-.24.37s-.1.18-.14.28-.13.24-.19.37-.07.19-.11.29-.09.22-.13.34l-4.21-4.15ZM2.4,48a4.94,4.94,0,0,1,1.89-3,3.63,3.63,0,0,1,2-.52A6.88,6.88,0,0,1,8,44.77ZM36.85,160.87c0,2.33-.78,4.21-2.11,5.17l-.41.23-.14.1h0c-1.57.75-3.51.3-5.48-1.27-5.5-4.39-8.06-9-8.06-14.48V60.88c0-.51.09-12.33-9.23-17a1.05,1.05,0,0,0-.84-.39,14,14,0,0,0-2.18-.76L78.67,2.82a1,1,0,0,0,.17-.08c1.32-1,3.32-.86,5.94.35C93.35,7,93.3,18.31,93.3,18.44v83l-5.24-1.6a1.52,1.52,0,0,0-1.51,2.54L93.32,109c.23,5.52,2.81,10.21,8,14.62L37.38,160A1,1,0,0,0,36.85,160.87Zm72.22-37-70.53,40a10.5,10.5,0,0,0,.39-2.4l72.47-41.13A5,5,0,0,1,109.07,123.88Zm-5.77-1.33c-4.46-3.6-7-7.36-7.68-11.62L109.53,119Zm9.87-5a1,1,0,0,0-1,0l-.49.28-15.76-9.16h0l0,0a.94.94,0,0,1-.11-.49,3.65,3.65,0,0,1,.72-2l.06-.09,0,0a3.33,3.33,0,0,1,.95-.87l-.16-.3.11,0,.12.17v0h0l.11,0,.1,0H98l58.17,33.8a6.21,6.21,0,0,0-2.19,3.6L113.66,119c0-.18,0-.36,0-.54A1,1,0,0,0,113.17,117.54Zm43.48,26.08c-.34.2-.52.18-.55.16l0,0,0,0a1,1,0,0,1-.09-.47,3.88,3.88,0,0,1,1.71-2.95,1,1,0,0,1,.48-.17h.06s.13.18.13.53A3.88,3.88,0,0,1,156.64,143.62Z"/><path class="cls-8" d="M93.6,108.67h0L18.86,147.73v3.37c0,5.66,2.52,10.56,8.46,15.3,5.11,4.08,9.84,1,9.84-5l65.06-37-.16-.41C96.12,119.23,93.6,114.34,93.6,108.67Z"/></g></g></svg>