<svg xmlns="http://www.w3.org/2000/svg" width="220" height="124" viewBox="0 0 220 124">
  <g fill="#FFF" transform="translate(20 39)">
    <g transform="translate(46.129 11.955)">
      <polygon points="2.452 3.045 13.743 17.867 13.743 3.045 16 3.045 16 21.445 13.613 21.445 2.323 6.492 2.323 21.445 .065 21.445 .065 3.045"/>
      <path d="M34.3223222 20.7241695C32.8347384 21.2912429 31.2296177 21.5737401 29.5093057 21.5737401 22.8263849 21.5737401 19.4834911 18.3786893 19.4834911 11.987548 19.4834911 5.93971751 22.7093693 2.91541243 29.1600832 2.91541243 31.0109627 2.91541243 32.7317959 3.17348023 34.3220616 3.68883616L34.3220616 5.74740113C32.7315353 5.14680226 31.0961834 4.84611299 29.4180909 4.84611299 24.38668 4.84611299 21.8714957 7.22745763 21.8714957 11.987548 21.8714957 17.091209 24.3473273 19.644339 29.3036814 19.644339 30.0941232 19.644339 30.9713494 19.540904 31.9356206 19.3342938L31.9356206 13.0814124 34.3223222 13.0814124 34.3223222 20.7241695zM38.1291086 14.3421243L38.1291086 3.04535593 40.5145072 3.04535593 40.5145072 14.3418644C40.5145072 17.8760678 42.2786023 19.6451186 45.8060107 19.6451186 49.3323766 19.6451186 51.0964717 17.8758079 51.0964717 14.3418644L51.0964717 3.04535593 53.4831733 3.04535593 53.4831733 14.3418644C53.4831733 19.1645876 50.924206 21.5745198 45.8060107 21.5745198 40.688076 21.5747797 38.1291086 19.1645876 38.1291086 14.3421243z"/>
      <polygon points="69.781 19.515 69.781 21.445 57.742 21.445 57.742 3.045 60.128 3.045 60.128 19.515"/>
      <polygon points="79.922 .617 89.096 21.445 86.452 21.445 84.064 15.654 77.962 15.654 78.62 13.726 83.265 13.726 79.82 5.387 73.225 21.445 70.749 21.445"/>
      <path d="M91.6125426 21.4448362L91.6125426 3.04457627 99.4838626 3.04457627C102.99407 3.04457627 104.748523 4.51631638 104.748523 7.45771751 104.748523 9.85179661 103.033423 11.6234463 99.6003569 12.7716271L105.935619 21.4448362 102.787143 21.4448362 96.9170768 13.1715932 96.9170768 11.6159096C100.443182 11.0568927 102.206235 9.706 102.206235 7.56219209 102.206235 5.86435028 101.225806 5.01374011 99.2657288 5.01374011L93.9997654 5.01374011 93.9997654 21.4456158 91.6128032 21.4456158 91.6125426 21.4448362zM114.878062 3.04457627L114.878062 16.1439209C114.878062 19.6778644 112.791848 21.4445763 108.618899 21.4445763L108.618899 19.5149153C111.200019 19.5149153 112.490839 18.3898644 112.490839 16.143661L112.490839 3.04457627 114.878062 3.04457627zM119.136231 20.8013559L119.136231 18.6136271C121.072332 19.2997288 123.161933 19.6440791 125.407382 19.6440791 128.581659 19.6440791 130.169319 18.4857627 130.169319 16.1678305 130.169319 14.197887 128.998381 13.2090169 126.65885 13.2090169L124.283876 13.2090169C120.422361 13.2090169 118.489648 11.5374237 118.489648 8.19163842 118.489648 4.67510734 120.964177 2.91489266 125.91167 2.91489266 128.061474 2.91489266 130.061164 3.17425989 131.911261 3.68831638L131.911261 5.87578531C130.060643 5.18890395 128.061474 4.84559322 125.91167 4.84559322 122.556267 4.84559322 120.878956 5.96128814 120.878956 8.19163842 120.878956 10.163661 122.013669 11.150452 124.283876 11.150452L126.65885 11.150452C130.588907 11.150452 132.55602 12.8243842 132.55602 16.1678305 132.55602 19.7719435 130.173488 21.5737401 125.406861 21.5737401 123.161933 21.5737401 121.072332 21.3154124 119.136231 20.8013559z"/>
      <polygon points="3.055 2.443 14.345 17.266 14.345 2.443 16.604 2.443 16.604 20.844 14.217 20.844 2.926 5.891 2.926 20.844 .668 20.844 .668 2.443"/>
      <path d="M34.9261645 20.1230508C33.4385807 20.6901243 31.8342418 20.9723616 30.1134086 20.9723616 23.4299665 20.9723616 20.087594 17.7775706 20.087594 11.3864294 20.087594 5.33859887 23.3134721 2.3140339 29.7654891 2.3140339 31.614805 2.3140339 33.3358988 2.57236158 34.9261645 3.08745763L34.9261645 5.14576271C33.3356382 4.54516384 31.7002863 4.24447458 30.0232362 4.24447458 24.9915647 4.24447458 22.4758592 6.62581921 22.4758592 11.3859096 22.4758592 16.4898305 24.9527332 19.0429605 29.9077843 19.0429605 30.6984867 19.0429605 31.5767553 18.9400452 32.540766 18.7329153L32.540766 12.479774 34.9264251 12.479774 34.9261645 20.1230508zM38.7326903 13.7404859L38.7326903 2.44241808 41.1180888 2.44241808 41.1180888 13.740226C41.1180888 17.2741695 42.882184 19.0421808 46.409853 19.0421808 49.9359583 19.0421808 51.7000534 17.2739096 51.7000534 13.740226L51.7000534 2.44241808 54.086755 2.44241808 54.086755 13.740226C54.086755 18.5626893 51.5277877 20.9715819 46.409853 20.9715819 41.2916577 20.9715819 38.7326903 18.563209 38.7326903 13.7404859z"/>
      <polygon points="70.384 18.913 70.384 20.843 58.346 20.843 58.346 2.442 60.732 2.442 60.732 18.913"/>
      <polygon points="80.526 .015 89.7 20.843 87.054 20.843 84.667 15.053 78.565 15.053 79.224 13.123 83.868 13.123 80.423 4.784 73.829 20.843 71.352 20.843"/>
      <path d="M92.2163849 20.8437175L92.2163849 2.44345763 100.087444 2.44345763C103.597913 2.44345763 105.350801 3.91415819 105.350801 6.85685876 105.350801 9.24963842 103.636744 11.0223277 100.203939 12.1702486L106.539461 20.8437175 103.389682 20.8437175 97.5203979 12.5702147 97.5203979 11.0129718C101.046764 10.4539548 102.810598 9.10436158 102.810598 6.95925424 102.810598 5.26141243 101.829127 4.41210169 99.8677468 4.41210169L94.6033471 4.41210169 94.6033471 20.8437175C94.6033471 20.8437175 92.2163849 20.8437175 92.2163849 20.8437175zM115.481904 2.44241808L115.481904 15.5420226C115.481904 19.0770056 113.39569 20.842678 109.223002 20.842678L109.223002 18.9132768C111.803861 18.9132768 113.094681 17.7879661 113.094681 15.5417627L113.094681 2.44241808 115.481904 2.44241808zM119.739031 20.1991977L119.739031 18.0119887C121.675392 18.6978305 123.764733 19.0424407 126.010443 19.0424407 129.184459 19.0424407 130.772118 17.8836045 130.772118 15.5669718 130.772118 13.5959887 129.601441 12.6081582 127.26165 12.6081582L124.886676 12.6081582C121.025161 12.6081582 119.092709 10.9355254 119.092709 7.58948023 119.092709 4.07294915 121.566195 2.31299435 126.51447 2.31299435 128.664274 2.31299435 130.664224 2.57236158 132.514322 3.08641808L132.514322 5.27414689C130.663442 4.58700565 128.664274 4.24369492 126.51447 4.24369492 123.159067 4.24369492 121.481756 5.35938983 121.481756 7.58974011 121.481756 9.56176271 122.615687 10.5485537 124.886676 10.5485537L127.26165 10.5485537C131.191446 10.5485537 133.15882 12.2217062 133.15882 15.5669718 133.15882 19.1703051 130.776549 20.9718418 126.009922 20.9718418 123.764994 20.9715819 121.675131 20.7132542 119.739031 20.1991977zM97.6913605 30.6651073L96.8149162 28.0077627 96.1917885 28.0077627 97.4012973 31.3655028C97.373151 31.4385311 97.3270224 31.5497627 97.2644751 31.6999774 97.2014065 31.8501921 97.1643993 31.9328362 97.1547566 31.949209 97.1221799 31.9980678 97.0820454 32.0391299 97.0338318 32.0726554 96.9858789 32.1061808 96.9113433 32.1228136 96.8102251 32.1228136 96.7776484 32.1228136 96.7395988 32.119435 96.6968581 32.1137175 96.654378 32.1077401 96.5850548 32.0913672 96.4896701 32.0648588L96.4896701 32.5646215C96.5506537 32.5809944 96.6025159 32.5916497 96.6436929 32.5981469 96.6853911 32.6038644 96.7453323 32.6069831 96.8227346 32.6069831 97.1401622 32.6069831 97.3637689 32.5157627 97.4938152 32.3330621 97.6241222 32.1503616 97.8474682 31.643322 98.1651565 30.8114237 98.2996332 30.4582373 98.4661655 30.0008362 98.6660563 29.4405198 98.9324037 28.694904 99.10493 28.2174915 99.1818111 28.0080226L98.5740596 28.0080226 97.6913605 30.6651073zM94.4370754 30.8888701C94.0406818 30.8888701 93.769904 30.709548 93.6250027 30.3498644 93.5473398 30.1593672 93.5090295 29.9106554 93.5090295 29.6039887 93.5090295 29.1798531 93.6031111 28.8752655 93.7925774 28.6899661 93.9815224 28.5057062 94.2014805 28.4131864 94.4527123 28.4131864 94.74043 28.4131864 94.9585638 28.5262373 95.1071136 28.7512994 95.2554029 28.9766215 95.3294173 29.2609379 95.3294173 29.6039887 95.3294173 29.9899209 95.2556635 30.3004859 95.1071136 30.5359435 94.9585638 30.7711412 94.7352177 30.8888701 94.4370754 30.8888701zM93.0044811 31.2696045L93.5113751 31.2696045 93.5113751 30.8527458C93.6276088 31.0094576 93.7370667 31.1230282 93.8394879 31.1939774 94.0109718 31.3137853 94.2215478 31.3735593 94.4709552 31.3735593 94.9166049 31.3735593 95.2650456 31.2030734 95.5167986 30.8615819 95.768291 30.5203503 95.8936462 30.0923164 95.8936462 29.5767006 95.8936462 29.0324972 95.7667273 28.6208362 95.5118469 28.3417175 95.2572272 28.0625989 94.9257264 27.9230395 94.5173445 27.9230395 94.3208417 27.9230395 94.1391938 27.9641017 93.9710979 28.0464859 93.8035232 28.1286102 93.659925 28.2478983 93.5390001 28.4043503L93.5390001 26.781096 93.0044811 26.781096 93.0044811 31.2696045z"/>
    </g>
    <path d="M21.6567715,26.904295 L27.9018395,26.9102599 L30.8267087,33.6665424 L35.5813477,33.7543842 L21.6443188,4.10852958 L8.32009701,33.6655028 L13.2892212,33.5737627 L15.9607737,26.9102599 L21.6439799,26.9102599 L21.6567715,26.904295 Z M21.8595289,22.9729718 L21.6437192,22.9656949 L17.7136625,22.9656949 L21.6795618,13.5848426 L26.1797032,22.9729718 L21.8595289,22.9729718 Z M3.54982119,35.9452316 L0.14438007,7.79011299 L21.6942783,0.22740113 L43.3823019,7.65627119 L39.9781639,35.8103503 L21.7172123,45.9025424 L3.54982119,35.9452316 Z"/>
    <g transform="translate(147.507 35.345)">
      <path d="M13.249991 5.52118508C13.249991 6.96783311 12.1151115 8.03384023 10.7223573 8.03384023 9.32960298 8.03384023 8.19472351 6.96783311 8.19472351 5.52118508 8.19472351 4.06434689 9.32960298 3.00853514 10.7223573 3.00853514 12.1151115 3.00853514 13.249991 4.06434689 13.249991 5.52118508zM12.1435132 5.52118508C12.1435132 4.61717593 11.4857604 3.99863966 10.7223573 3.99863966 9.95895415 3.99863966 9.30120389 4.61717593 9.30120389 5.52118508 9.30120389 6.41613718 9.95895415 7.04373311 10.7223573 7.04373311 11.4857604 7.04373311 12.1435132 6.41500407 12.1435132 5.52118508zM18.702864 5.52118508C18.702864 6.96783311 17.5679819 8.03384023 16.1752277 8.03384023 14.7824734 8.03384023 13.6475965 6.96783311 13.6475965 5.52118508 13.6475965 4.0654774 14.7824734 3.00853514 16.1752277 3.00853514 17.5679819 3.00853514 18.702864 4.06434689 18.702864 5.52118508zM17.5963836 5.52118508C17.5963836 4.61717593 16.9386334 3.99863966 16.1752277 3.99863966 15.4118271 3.99863966 14.7540743 4.61717593 14.7540743 5.52118508 14.7540743 6.41613718 15.4118271 7.04373311 16.1752277 7.04373311 16.9386334 7.04373311 17.5963836 6.41500407 17.5963836 5.52118508zM23.9285312 3.16033514L23.9285312 7.67132904C23.9285312 9.52693266 22.8311411 10.2848073 21.5338132 10.2848073 20.3125975 10.2848073 19.5775935 9.47029028 19.3004072 8.8041765L20.2637455 8.40428056C20.4352867 8.81324136 20.8556125 9.29583073 21.5326769 9.29583073 22.3631021 9.29583073 22.877718 8.78491887 22.877718 7.82313164L22.877718 7.46175356 22.8390924 7.46175356C22.5914415 7.76648927 22.1143149 8.03270972 21.5122291 8.03270972 20.2523879 8.03270972 19.0981944 6.93837751 19.0981944 5.53024994 19.0981944 4.11192441 20.2523879 3.00853514 21.5122291 3.00853514 22.1131786 3.00853514 22.5903052 3.2747504 22.8390924 3.57042644L22.877718 3.57042644 22.877718 3.16146825 23.9285312 3.16146825 23.9285312 3.16033514zM22.9561028 5.53024994C22.9561028 4.64549842 22.3642383 3.99863966 21.6110617 3.99863966 20.8476586 3.99863966 20.2080836 4.64549842 20.2080836 5.53024994 20.2080836 6.40594181 20.8476586 7.04373311 21.6110617 7.04373311 22.3642383 7.04373311 22.9561028 6.40594181 22.9561028 5.53024994z"/>
      <polygon points="25.661 .516 25.661 7.88 24.582 7.88 24.582 .516 25.661 .516"/>
      <path d="M29.8664822 6.34816633L30.7253117 6.91911989C30.4481228 7.32807808 29.780146 8.03270972 28.6259551 8.03270972 27.1945752 8.03270972 26.1255841 6.92931525 26.1255841 5.52005458 26.1255841 4.02582904 27.2036628 3.00740203 28.502127 3.00740203 29.8096814 3.00740203 30.4492564 4.04508667 30.6582844 4.60584746L30.7730222 4.89132294 27.4047368 6.2824591C27.6626116 6.78657751 28.063626 7.04373311 28.6259551 7.04373311 29.1894178 7.04373311 29.5802057 6.76731729 29.8664822 6.34816633zM27.2229769 5.44415198L29.4745581 4.51182034C29.35073 4.19801977 28.9781174 3.97938203 28.5396163 3.97938203 27.9772898 3.97938203 27.1945752 4.47443819 27.2229769 5.44415198zM4.10961451 4.86753288L4.10961451 3.80152576 7.71191812 3.80152576C7.74713487 3.98731379 7.76531008 4.20708463 7.76531008 4.4449826 7.76531008 5.24477186 7.54605825 6.23374847 6.83945854 6.93837751 6.15216771 7.65207141 5.27402936 8.03270972 4.11075079 8.03270972 1.95459342 8.03270972.141513318 6.28132599.141513318 4.13118463.141513318 1.98104068 1.95459342.229659548 4.11075079.229659548 5.30356472.229659548 6.15330399.69639322 6.79174536 1.30473153L6.03743246 2.05694328C5.57961733 1.62872486 4.95935378 1.29566927 4.10961451 1.29566927 2.53509773 1.29566927 1.30365821 2.5610591 1.30365821 4.13118463 1.30365821 5.70131017 2.53509773 6.9667 4.10961451 6.9667 5.13089241 6.9667 5.71253039 6.55774181 6.08514304 6.18616836 6.38732479 5.88483198 6.58612625 5.45434734 6.66451107 4.86640237L4.10961451 4.86744192 4.10961451 4.86753288z"/>
    </g>
  </g>
</svg>
