<svg xmlns="http://www.w3.org/2000/svg" width="220" height="124" viewBox="0 0 220 124">
  <path fill="#FFF" d="M88.6910669,44.2642916 C85.097717,44.2830456 81.9747008,45.1457277 79.3596451,46.420997 C78.4001642,44.5268471 77.4406833,42.8389907 77.2713632,41.6012293 C77.0832297,40.1571744 76.8574694,39.2757383 77.0832297,37.550374 C77.3089899,35.8250097 78.3249108,33.368241 78.3060974,33.1807014 C78.2872841,32.9931618 78.0803372,32.1117257 76.0108687,32.0929717 C73.9414001,32.0742178 72.1541318,32.4868049 71.947185,33.0306697 C71.7402381,33.5745346 71.3451578,34.8122959 71.0817708,36.0875652 C70.7243172,37.9629612 66.9428337,44.6581248 64.7792984,48.1651153 C64.0832045,46.7960762 63.4811773,45.5958228 63.3494838,44.6393708 C63.1613503,43.1953159 62.9355901,42.3138798 63.1613503,40.5885155 C63.3871105,38.8631512 64.4030314,36.4063825 64.3842181,36.2188429 C64.3654047,36.0313033 64.1584579,35.1498672 62.0889893,35.1311132 C60.0195208,35.1123593 58.2322525,35.5249464 58.0253056,36.0688112 C57.8183588,36.612676 57.5925986,37.8879453 57.1598915,39.1257067 C56.7271844,40.363468 51.7040198,51.540828 50.3870853,54.4289378 C49.7098047,55.9105007 49.1265908,57.0920001 48.7126971,57.8984204 C48.7126971,57.8984204 48.7126971,57.8984204 48.7126971,57.8984204 C48.7126971,57.8984204 48.6938838,57.9546823 48.6374437,58.0484521 C48.2799901,58.7423486 48.0730432,59.1174278 48.0730432,59.1174278 C48.0730432,59.1174278 48.0730432,59.1174278 48.0730432,59.1361817 C47.7908429,59.6425387 47.4898293,60.1113877 47.3393225,60.1113877 C47.2264424,60.1113877 47.0194956,58.7611025 47.3769492,56.9232145 C48.1294833,53.0411448 49.9167516,47.0023698 49.8979382,46.7960762 C49.8979382,46.6835524 50.2365785,45.6333307 48.7315105,45.0894659 C47.2640691,44.545601 46.7372953,45.4457911 46.6056019,45.4457911 C46.4739084,45.4457911 46.3798417,45.7646084 46.3798417,45.7646084 C46.3798417,45.7646084 48.0166032,38.975675 43.2568255,38.975675 C40.2843161,38.975675 36.1830057,42.22011 34.1511638,45.1457277 C32.871856,45.8396243 30.1439202,47.3211871 27.2278509,48.9152737 C26.1178632,49.5341543 24.9702488,50.153035 23.8978878,50.7344078 C23.8226344,50.6593919 23.747381,50.5656221 23.6721276,50.4906063 C17.9152424,44.3580614 7.26688601,40.0258967 7.71840642,31.7929084 C7.88772658,28.7922748 8.92246085,20.9156117 28.1685184,11.3510922 C44.0093595,3.56819892 56.6143043,5.72490429 58.796653,10.507164 C61.9196692,17.3336054 52.0426602,30.0112822 35.6750452,31.8491703 C29.4290129,32.5430668 26.1554899,30.1425599 25.3277025,29.2423699 C24.4622884,28.3046719 24.3305949,28.24841 24.0107679,28.4359496 C23.4839941,28.717259 23.8226344,29.5611872 24.0107679,30.0487901 C24.4999151,31.3240594 26.5129436,33.5745346 29.91816,34.6810182 C32.9282961,35.6562241 40.2466894,36.2000889 49.1077775,32.7868683 C59.0224132,28.9610605 66.7735136,18.3275653 64.4970982,9.41943437 C62.2206828,0.380025757 47.1700024,-2.60185385 32.9282961,2.44296133 C24.4622884,5.4435949 15.2813733,10.1695928 8.6778873,16.3208916 C0.832720146,23.6349359 -0.408960986,29.9925282 0.098999477,32.6555905 C1.92389447,42.1075863 14.9991731,48.2588851 20.2292845,52.8160973 C19.9658976,52.966129 19.721324,53.0974067 19.5143772,53.2099305 C16.8993215,54.5039537 6.9282457,59.6988005 4.44488344,65.1937107 C1.62288087,71.4200254 4.89640385,75.8834678 7.05993916,76.4835945 C13.7763053,78.3402366 20.6808049,75.0020317 24.3870349,69.4883675 C28.093265,63.9747034 27.6417446,56.8106907 25.9297297,53.5287478 C25.9109163,53.4912398 25.892103,53.4537319 25.8544763,53.416224 C26.5317569,53.0223909 27.2278509,52.6098037 27.9051315,52.2159706 C29.2408794,51.4283043 30.5578139,50.6968998 31.6866149,50.0967731 C31.046961,51.8408914 30.5766273,53.9225809 30.3508671,56.9232145 C30.0686668,60.4489589 31.5172948,65.0249251 33.4174432,66.8253053 C34.264044,67.6129716 35.2611515,67.6317255 35.9008054,67.6317255 C38.1207808,67.6317255 39.1178884,65.7938375 40.2278761,63.6183781 C41.5824373,60.9553158 42.8053051,57.8609125 42.8053051,57.8609125 C42.8053051,57.8609125 41.2814237,66.2251785 45.4203608,66.2251785 C46.9254288,66.2251785 48.4493102,64.2747667 49.1265908,63.2808069 C49.1265908,63.2995608 49.1265908,63.2995608 49.1265908,63.2995608 C49.1265908,63.2995608 49.1642175,63.2432989 49.2394709,63.1120212 C49.3899777,62.8682197 49.4840445,62.7181881 49.4840445,62.7181881 C49.4840445,62.7181881 49.4840445,62.6994341 49.4840445,62.6806801 C50.0860717,61.6304584 51.4406329,59.2487055 53.4536614,55.29162 C56.0499038,50.1905429 58.5520794,43.8141966 58.5520794,43.8141966 C58.5520794,43.8141966 58.7778396,45.3707753 59.549187,47.9588217 C60.0007074,49.4778925 60.9413749,51.1469949 61.693909,52.7598354 C61.0918817,53.6037636 60.7156147,54.0726126 60.7156147,54.0726126 C60.7156147,54.0726126 60.7156147,54.0726126 60.7344281,54.0913666 C60.245281,54.7290012 59.7185072,55.4228977 59.1352933,56.0980403 C57.0846381,58.536055 54.6389025,61.330395 54.3002622,62.1368153 C53.9051819,63.0932673 53.9992486,63.7871638 54.7517826,64.3497826 C55.2973698,64.7623697 56.275664,64.8186316 57.2727716,64.7623697 C59.1164799,64.631092 60.4146011,64.1809969 61.054255,63.8996875 C62.0513626,63.5433623 63.2177903,62.9994975 64.3089647,62.1930772 C66.3219932,60.7115144 67.544861,58.5923169 67.4319809,55.7979769 C67.3755408,54.2601522 66.8675803,52.7223275 66.2467398,51.2782726 C66.4348733,51.0157172 66.6041934,50.7531617 66.7923269,50.4906063 C69.9717832,45.8583782 72.4363321,40.7760551 72.4363321,40.7760551 C72.4363321,40.7760551 72.6620923,42.3326338 73.4334397,44.9206802 C73.8097067,46.2334574 74.581054,47.6587584 75.2583347,49.0465514 C72.2670119,51.4658122 70.4233036,54.2789062 69.7648363,56.1167942 C68.5795952,59.5300149 69.5014494,61.0678396 71.251091,61.4241648 C72.0412517,61.5929505 73.1700527,61.2178713 73.9978402,60.861546 C75.0513878,60.5239748 76.2930689,59.942602 77.47831,59.0799199 C79.4913385,57.598357 81.4291136,55.5354215 81.3162335,52.7410815 C81.2597935,51.4658122 80.9211531,50.2092969 80.4508194,48.9902895 C82.9906217,47.9400678 86.2641447,47.358695 90.4407085,47.846298 C99.3958633,48.8965197 101.164318,54.4664458 100.825678,56.8106907 C100.487038,59.1549357 98.6057026,60.430205 97.984862,60.8240381 C97.3640215,61.2178713 97.1570746,61.349149 97.2135147,61.6304584 C97.2887681,62.0430455 97.5897817,62.0242915 98.1165555,61.9492757 C98.8502762,61.817998 102.819893,60.0551258 102.989213,55.741715 C103.271414,50.2280508 98.0036754,44.2080298 88.6910669,44.2642916 Z M19.6084439,67.4816938 C16.6359346,70.7073749 12.4969974,71.9263823 10.7097291,70.8949145 C8.7907674,69.7884309 9.54330142,65.0249251 13.1930914,61.6117044 C15.4130668,59.5300149 18.272696,57.598357 20.1728444,56.4168576 C20.6055515,56.1543021 21.2452054,55.7792229 22.0165528,55.3103739 C22.1482462,55.2353581 22.2234996,55.1978502 22.2234996,55.1978502 C22.3740064,55.1040804 22.5245133,55.0103106 22.6750201,54.9165408 C24.0107679,59.7925703 22.7314601,64.0872271 19.6084439,67.4816938 Z M41.243797,52.8160973 C40.2090627,55.3291279 38.0455274,61.7617361 36.7285929,61.4054109 C35.5997918,61.1053475 34.9036979,56.229318 36.5028327,51.4095503 C37.3118067,48.9902895 39.0238216,46.1021797 40.0209292,44.9769421 C41.6388773,43.176562 43.4261456,42.5764353 43.8588527,43.3078397 C44.4044399,44.2642916 41.8834509,51.2407647 41.243797,52.8160973 Z M59.0976666,61.330395 C58.6649595,61.5554426 58.2510658,61.7054742 58.0629323,61.5929505 C57.9312389,61.5179346 58.2510658,61.2178713 58.2510658,61.2178713 C58.2510658,61.2178713 60.4898545,58.8173644 61.374082,57.7296348 C61.8820425,57.0920001 62.4840697,56.3418417 63.1237236,55.4979135 C63.1237236,55.5729294 63.1237236,55.6666992 63.1237236,55.741715 C63.1237236,58.6110709 60.3393477,60.5427287 59.0976666,61.330395 Z M72.8690391,58.1984838 C72.5492122,57.9734362 72.6056522,57.2232778 73.6780132,54.8790329 C74.0919069,53.9600888 75.0702011,52.4222641 76.7445893,50.9407013 C76.9327228,51.540828 77.0644163,52.1222008 77.0456029,52.6660656 C77.0267896,56.2855799 74.4305472,57.635865 72.8690391,58.1984838 Z" transform="translate(58 24)"/>
</svg>
