<svg xmlns="http://www.w3.org/2000/svg" width="220" height="124" viewBox="0 0 220 124">
  <path fill="#FFF" d="M65.623184,72.6033588 C55.3751198,78.5264152 41.2843059,79.1349785 27.1078537,73.0559365 C15.6294508,68.1698543 6.10536058,59.6170135 0,49.8448491 C2.93059064,52.2878902 6.34953987,54.2432019 10.0126684,55.9524518 C24.6528856,62.8180125 39.2900287,62.3478589 49.5907935,55.9700277 C49.5842059,55.9634367 49.5798142,55.9590428 49.5754225,55.9524518 C34.9224693,44.7127052 22.4675688,30.0522616 13.1878775,18.0809208 C11.2333452,16.1260485 9.76804992,13.682568 8.3027546,11.4836114 C19.536539,21.7457022 37.3649209,34.6946988 43.7131433,38.3614574 C30.2832824,24.1887433 18.3158621,6.59752916 18.8033424,7.08525859 C40.0504539,28.587096 59.8329289,40.8044985 59.8329289,40.8044985 C60.4872943,41.1735911 60.9923414,41.4811682 61.3985749,41.7557906 C61.826767,40.6660888 62.2022585,39.5346444 62.5184619,38.3614574 C65.9374111,25.9001902 62.0309817,11.7274761 53.4825107,0 C73.2627898,11.9724393 84.9864699,34.4508341 80.1006883,53.2657657 C79.9733286,53.773268 79.8349896,54.2741793 79.6856713,54.7663027 C79.7427636,54.834409 79.7998559,54.9047124 79.8569482,54.9772127 C89.6241197,67.1946152 86.9385867,80.1436118 85.7176903,77.7005707 C80.4190875,67.3264339 70.6101947,70.4988722 65.6234036,72.6035785 L65.623184,72.6033588 Z" transform="translate(67 23)"/>
</svg>
