<svg xmlns="http://www.w3.org/2000/svg" width="220" height="124" viewBox="0 0 220 124">
  <g fill="none" fill-rule="evenodd">
    <rect width="220" height="124"/>
    <g fill="#FFF" fill-rule="nonzero" transform="translate(19 38)">
      <path d="M22.9344209,45.3195172 C10.5266587,45.3195172 0.468180069,35.3515849 0.468180069,23.0555172 C0.468180069,10.7594496 10.5266587,0.791517241 22.9344209,0.791517241 C35.3421831,0.791517241 45.4006618,10.7594496 45.4006618,23.0555172 C45.4006618,35.3515849 35.3421831,45.3195172 22.9344209,45.3195172 Z M32.7565987,9.02948276 C30.4749211,9.1087931 28.4813544,10.3555517 26.9999846,12.0797586 C25.3569527,13.9705172 24.2653328,16.2142069 23.4778299,18.5031034 C22.0700885,17.3594483 20.9840708,15.8795172 18.7256022,15.233931 C16.9785302,14.7366552 15.1458253,14.9412759 13.4595768,16.1864483 C12.6600693,16.7781034 12.1102578,17.671931 11.8485571,18.5118276 C11.1698961,20.6960345 12.5600308,22.639931 13.192274,23.3386552 L14.5728049,24.8027241 C14.8577145,25.0906207 15.5419777,25.8408966 15.2082493,26.9155517 C14.8457099,28.0853793 13.4243632,28.8412069 11.9654021,28.3962759 C11.3139515,28.1964138 10.3775914,27.7165862 10.5880723,27.0408621 C10.6745056,26.7632759 10.8745825,26.5546897 10.9826241,26.3175517 C11.0810619,26.1113448 11.1274798,25.9574828 11.1570912,25.867069 C11.4235937,25.0041724 11.0594536,23.8827241 10.1278953,23.598 C9.25796075,23.3346897 8.36961908,23.544069 8.02468642,24.6520345 C7.63253559,25.9138621 8.24156983,28.1987931 11.5012235,29.1957241 C15.3202924,30.3592069 18.5511351,28.2971379 19.0089111,25.6101034 C19.2978222,23.9271379 18.5295267,22.6756207 17.1249865,21.0664138 L15.9805464,19.8125172 C15.2866795,19.1248966 15.0489881,17.955069 15.7660639,17.0564828 C16.3718969,16.2974828 17.2338284,15.9738966 18.6479723,16.3537931 C20.7103655,16.9073793 21.6299192,18.3262414 23.163309,19.4706897 C22.5302655,21.5287931 22.115706,23.5948276 21.7419623,25.4491034 L21.512274,26.8291034 C20.4150519,32.5283448 19.5787303,35.6571379 17.4034937,37.4535172 C16.9657253,37.7636207 16.338284,38.2252069 15.394721,38.2577241 C14.8993305,38.2735862 14.7400693,37.9357241 14.7320662,37.7882069 C14.7208619,37.444 15.0145748,37.2861724 15.2090496,37.1315172 C15.4995614,36.9736897 15.9389304,36.7135517 15.909319,35.88 C15.8765063,34.8917931 15.0521893,34.0368276 13.8613313,34.0772759 C12.9673875,34.1066207 11.6076645,34.9385862 11.6588842,36.4645172 C11.7117045,38.0380345 13.192274,39.2189655 15.4251327,39.1428276 C16.619192,39.1039655 19.284217,38.6225517 21.9100269,35.5286552 C24.9664025,31.9811034 25.8219315,27.9148621 26.465379,24.9391379 L27.1824548,21.0108966 C27.5818084,21.0576897 28.0075721,21.0902069 28.4717507,21.1005172 C32.2788149,21.1814138 34.1827472,19.2264138 34.2123586,17.8051724 C34.2307657,16.9446552 33.6425394,16.0984138 32.8182224,16.1174483 C32.2291958,16.1341034 31.4881108,16.5227241 31.3104425,17.3301034 C31.1367757,18.1232069 32.5221085,18.8385862 31.439292,19.5341379 C30.6701962,20.0282414 29.2912659,20.3756207 27.3497191,20.0932759 L27.7034552,18.1588966 C28.4229319,14.4915862 29.3128742,9.98041379 32.684571,9.87175862 C32.9302655,9.85906897 33.8298115,9.88286207 33.8506195,10.4713448 C33.8562216,10.6680345 33.8074028,10.7187931 33.5753136,11.1692759 C33.3376222,11.5198276 33.248788,11.8188276 33.259192,12.1630345 C33.2928049,13.0988966 34.010681,13.7143448 35.0502809,13.6778621 C36.4404155,13.6326552 36.8405694,12.2915172 36.8181608,11.6015172 C36.7605387,9.97962069 35.0366756,8.95651724 32.7565987,9.02948276 Z"/>
      <g transform="translate(56.822 8.724)">
        <path d="M79.8635167 8.06744828C85.0447095 8.06744828 88.5172451 11.7767931 88.5172451 16.9081724 88.5172451 21.7437241 84.9766833 25.7481034 79.8635167 25.7481034 74.7191381 25.7481034 71.1785764 21.7437241 71.1785764 16.9081724 71.1785764 11.7767931 74.6503117 8.06744828 79.8635167 8.06744828zM79.8635167 23.2355517C83.5393305 23.2355517 85.1751597 19.9235517 85.1751597 16.9081724 85.1751597 13.6976897 83.2040015 10.5855517 79.8635167 10.5855517 76.489419 10.5855517 74.5174606 13.6976897 74.5174606 16.9081724 74.5174606 19.9235517 76.1556907 23.2355517 79.8635167 23.2355517zM70.7480108 9.63937931L70.7480108 8.4647931 66.2358753 8.4647931 66.2358753 6.85955172C66.2358753 4.57462069 66.5712043 2.85041379 69.2754444 2.85041379 69.3250635 2.85041379 69.3778838 2.85517241 69.4299038 2.85755172 69.435506 2.85755172 69.4339053 2.84882759 69.4403078 2.84882759 70.1909965 2.90275862 70.8168372 2.29762069 70.8584533 1.55368966L70.9128742.533758621C70.2782301.433827586 69.6083725.335482759 68.8080646.335482759 64.1638784.335482759 63.0954675 3.01775862 63.0954675 7.12444828L63.0954675 8.4647931 59.0819238 8.4647931 59.0819238 9.7757931C59.1851635 10.4554828 59.7725895 10.9797241 60.4888649 10.9797241 60.4920662 10.9797241 60.4960677 10.9828966 60.5000693 10.9828966L63.0954675 10.9828966 63.0954675 25.3531379 64.8241324 25.3531379C64.8281339 25.3531379 64.825733 25.3531379 64.8297345 25.3531379 65.5500115 25.3531379 66.1374375 24.8154138 66.235075 24.1309655L66.235075 10.9828966 69.3770835 10.9828966C70.1165679 10.9583103 70.7111966 10.3722069 70.7480108 9.63937931zM28.9111197 8.4647931C28.9063178 8.4647931 28.9023163 8.46875862 28.8943132 8.46875862 28.2332589 8.46875862 27.5922124 8.91924138 27.3121047 9.52913793L22.9912428 22.4392759 22.9240169 22.4392759 18.6975914 9.53548276C18.4206849 8.92241379 17.7772374 8.46796552 17.1113813 8.46796552 17.1033782 8.46796552 17.1009773 8.464 17.0945748 8.464L14.9041324 8.464 20.6847557 24.2261379C20.8864332 24.7900345 21.2881878 25.6513448 21.2881878 26.0137931 21.2881878 26.3468966 20.3518276 30.1855172 17.5435475 30.1855172 17.474721 30.1855172 17.404294 30.1775862 17.3362678 30.1728276 16.6199923 30.1339655 16.0789842 30.6296552 15.9597384 31.3934138L15.8741054 32.4712414C16.442324 32.5703793 17.0121431 32.7036207 18.0141285 32.7036207 22.1565217 32.7036207 23.3929973 28.9593793 24.5638476 25.7155862L30.843863 8.4632069 28.9111197 8.4632069 28.9111197 8.4647931zM8.9450404 11.8949655C6.35204309 10.58 3.51335129 9.68617241 3.4637322 7.04037931 3.47173528 4.23041379 6.07753751 3.49203448 8.0847095 3.49441379 8.0943132 3.49282759 8.10231628 3.49282759 8.10711812 3.49282759 8.97945364 3.49282759 9.67652174 3.57848276 10.3575837 3.7267931 10.3663871 3.7267931 10.3647865 3.71568966 10.3751905 3.71568966 11.0954675 3.76803448 11.6996999 3.21048276 11.7837322 2.5077931L11.8413544 1.48706897C10.524848 1.16348276 9.14911889.997724138 7.95185841.997724138 3.5861793 1.02468966.344132359 3.20175862.333728357 7.35682759.338530204 10.9892414 2.80828011 12.397 5.46690265 13.6723103 8.07270489 14.9143103 10.9258022 15.939 10.9506118 18.9377241 10.9362062 22.064931 7.89023471 23.2173103 5.79102732 23.222069 4.56335514 23.2173103 3.23084263 22.9151379 2.10721047 22.5637931 1.4037399 22.4487931.826717968 23.0642414.73468257 23.8787586L.640246249 24.7876552C2.18404002 25.2817586 3.76624856 25.714 5.35806079 25.714 5.35806079 25.714 5.35966141 25.714 5.36126202 25.714 5.36526356 25.714 5.37086572 25.714 5.37566756 25.714 10.2671489 25.6783103 14.068611 23.7455172 14.0838169 18.7259655 14.0782147 14.8540345 11.5900577 13.2273793 8.9450404 11.8949655zM56.4489111 25.3531379C56.451312 25.3531379 56.451312 25.3531379 56.4529127 25.3531379 57.1307734 25.3531379 57.696591 24.8804483 57.8382455 24.2515172L57.8382455 14.5248966C57.8382455 10.8488621 56.2712428 8.06665517 51.9247711 8.06665517 50.3881801 8.06665517 47.8159908 8.92955172 46.6459407 11.3461379 45.7447942 9.0612069 43.7728357 8.06665517 41.8032782 8.06665517 39.2959138 8.06665517 37.5912582 8.96048276 36.3891958 10.9154828L36.32197 10.9154828 36.32197 9.86541379C36.3123663 9.09213793 35.6809234 8.46796552 34.899823 8.46796552 34.8926202 8.46796552 34.889419 8.464 34.8846172 8.464L33.3824394 8.464 33.3824394 25.3523448 35.0822932 25.3523448C35.0846941 25.3523448 35.0846941 25.3523448 35.0862947 25.3523448 35.8737976 25.3523448 36.5108426 24.7186552 36.5108426 23.9398276 36.5108426 23.9184138 36.5180454 23.9104828 36.5252482 23.8962069L36.5252482 16.8415517C36.5252482 13.6968966 37.7937361 10.5847586 41.0005694 10.5847586 43.5383455 10.5847586 44.0433397 13.1996207 44.0433397 15.2862759L44.0433397 25.3515517 45.7664025 25.3515517C45.7680031 25.3515517 45.7680031 25.3515517 45.7712043 25.3515517 46.5154906 25.3515517 47.1149211 24.7844828 47.1813467 24.0643448L47.1813467 16.8415517C47.1813467 13.6968966 48.4522355 10.5847586 51.6590689 10.5847586 54.1984456 10.5847586 54.7002386 13.1996207 54.7002386 15.2862759L54.7002386 25.3515517 56.4489111 25.3515517 56.4489111 25.3531379zM104.985979 25.3531379C104.98758 25.3531379 104.98758 25.3531379 104.989981 25.3531379 105.755875 25.3531379 106.372913 24.7535517 106.408927 24.0024828L106.408927 15.3195862C106.408927 10.7838276 104.435367 8.06665517 100.024871 8.06665517 97.6527588 8.06665517 95.3822855 9.22696552 94.4443247 11.1486552L94.3786995 11.1486552 94.3786995 9.88682759C94.3786995 9.88524138 94.3754983 9.88524138 94.3754983 9.88206897 94.3754983 9.09927586 93.7360523 8.46796552 92.9517507 8.46796552 92.9429473 8.46796552 92.9413467 8.464 92.9357445 8.464L91.3367295 8.464 91.3367295 25.3523448 93.0629935 25.3523448C93.0629935 25.3523448 93.0629935 25.3523448 93.0661947 25.3523448 93.8136822 25.3523448 94.4195152 24.7757586 94.4771374 24.0492759L94.4771374 17.5371034C94.4771374 13.432 96.0825548 10.5847586 99.6575298 10.5847586 102.400185 10.748931 103.264517 12.6682414 103.264517 16.6099655L103.264517 25.3515517 104.985979 25.3515517 104.985979 25.3531379zM121.894883 8.4647931C121.88688 8.4647931 121.883678 8.46875862 121.877276 8.46875862 121.215421 8.46875862 120.573574 8.91924138 120.294267 9.52913793L115.975006 22.4392759 115.904579 22.4392759 111.677353 9.53548276C111.400446 8.92241379 110.756999 8.46796552 110.092743 8.46796552 110.086341 8.46796552 110.082339 8.464 110.076737 8.464L107.886295 8.464 113.667718 24.2261379C113.867795 24.7900345 114.271951 25.6513448 114.271951 26.0137931 114.271951 26.3468966 113.33479 30.1855172 110.52571 30.1855172 110.457684 30.1855172 110.388857 30.1775862 110.31843 30.1728276 109.602155 30.1339655 109.063548 30.6296552 108.9403 31.3934138L108.856268 32.4712414C109.423686 32.5703793 109.994306 32.7036207 110.997091 32.7036207 115.139484 32.7036207 116.37516 28.9593793 117.54681 25.7155862L123.828426 8.4632069 121.894883 8.4632069 121.894883 8.4647931z"/>
      </g>
    </g>
  </g>
</svg>
