<svg xmlns="http://www.w3.org/2000/svg" width="220" height="124" viewBox="0 0 220 124">
  <g fill="#FFF" transform="translate(29 44)">
    <path d="M95.1243411 14.5098039L88.5943123 14.5098039 88.5943123 15.2131133C90.6368471 15.2131133 90.9652377 15.6575549 90.9652377 18.2874019L90.9652377 23.0284245C90.9652377 25.6579596 90.6371543 26.139516 88.5943123 26.139516 87.0260855 25.9174511 85.9678012 25.0653707 84.5086284 23.4357514L82.8307333 21.5840672C85.0922975 21.1761166 86.2958847 19.7320711 86.2958847 18.1021399 86.2958847 16.0655056 84.5817407 14.5098039 81.3712533 14.5098039L74.9508929 14.5098039 74.9508929 15.2131133C76.9934276 15.2131133 77.3218183 15.6575549 77.3218183 18.2874019L77.3218183 23.0284245C77.3218183 25.6579596 76.9934276 26.139516 74.9508929 26.139516L74.9508929 26.8431373 82.2102008 26.8431373 82.2102008 26.139516C80.1676661 26.139516 79.8392754 25.6579596 79.8392754 23.0284245L79.8392754 21.6954115 80.4591935 21.6954115 84.5086284 26.8431373 95.1243411 26.8431373C100.340807 26.8431373 102.602679 24.0286521 102.602679 20.6577573 102.602679 17.2874862 100.341114 14.5098039 95.1243411 14.5098039zM79.8395826 20.5464129L79.8395826 15.621064 81.3350043 15.621064C82.9763434 15.621064 83.706237 16.7691269 83.706237 18.1024518 83.706237 19.3989738 82.9763434 20.5467248 81.3350043 20.5467248L79.8395826 20.5467248 79.8395826 20.5464129zM95.2340094 25.6950743L94.9784238 25.6950743C93.6654754 25.6950743 93.483002 25.361977 93.483002 23.6581282L93.483002 15.621064C93.483002 15.621064 95.0880921 15.621064 95.2340094 15.621064 99.0278588 15.621064 99.7205819 18.4355491 99.7205819 20.6209544 99.7205819 22.8799654 99.0275516 25.6950743 95.2340094 25.6950743zM55.1353111 21.5231745L57.6534613 14.2872247C58.383645 12.1947219 58.0551238 11.5919999 55.7195195 11.5919999L55.7195195 10.8823529 62.5803571 10.8823529 62.5803571 11.5919999C60.2813235 11.5919999 59.733993 12.1239364 58.8215708 14.7131323L54.6608146 26.8431373 54.1866255 26.8431373 50.4637951 15.7414633 46.6687454 26.8431373 46.194249 26.8431373 42.1435121 14.7131323C41.2676604 12.1239364 40.6837594 11.5919999 38.5669643 11.5919999L38.5669643 10.8823529 46.6687454 10.8823529 46.6687454 11.5919999C44.5153797 11.5919999 43.9311713 12.0883944 44.6979256 14.2872247L47.1429346 21.5231745 50.8288869 10.8823529 51.5225 10.8823529 55.1353111 21.5231745zM67.3102679 26.8431373C63.5082929 26.8431373 60.3973214 23.8970681 60.3973214 20.2955002 60.3973214 16.7309955 63.5085839 13.7843137 67.3102679 13.7843137 71.1125339 13.7843137 74.2232143 16.7309955 74.2232143 20.2955002 74.2232143 23.8970681 71.1125339 26.8431373 67.3102679 26.8431373zM67.3102679 14.9127519C64.1306036 14.9127519 63.0242411 17.931416 63.0242411 20.2958065 63.0242411 22.6969539 64.1306036 25.6794736 67.3102679 25.6794736 70.5251518 25.6794736 71.6312232 22.6969539 71.6312232 20.2958065 71.6312232 17.931416 70.5251518 14.9127519 67.3102679 14.9127519zM110.775426 25.4139691L110.775426 26.1176471 102.602679 26.1176471 102.602679 25.4139691C104.994035 25.4139691 105.422297 24.8160651 105.422297 21.2970828L105.422297 15.6679555C105.422297 12.1489732 104.994035 11.5863272 102.602679 11.5863272L102.602679 10.8823529 109.990128 10.8823529C113.665971 10.8823529 115.700893 12.7471736 115.700893 15.2457488 115.700893 17.6735117 113.665971 19.573294 109.990128 19.573294L107.955807 19.573294 107.955807 21.2967865C107.955807 24.8160651 108.384069 25.4139691 110.775426 25.4139691zM109.990128 12.1489732L107.955807 12.1489732 107.955807 18.2714158 109.990128 18.2714158C111.988986 18.2714158 112.916737 16.8993179 112.916737 15.2457488 112.916737 13.5569217 111.988986 12.1489732 109.990128 12.1489732zM139.910961 23.3618337L139.734059 24.0283402C139.415993 25.2506327 139.026451 25.6950743 136.515576 25.6950743L136.02031 25.6950743C134.181602 25.6950743 133.863238 25.2506327 133.863238 22.6210977L133.863238 20.9175607C136.621895 20.9175607 136.834237 21.1764284 136.834237 23.1026541L137.506107 23.1026541 137.506107 17.5837806 136.834237 17.5837806C136.834237 19.5096943 136.621895 19.768874 133.863238 19.768874L133.863238 15.621064 135.807968 15.621064C138.319439 15.621064 138.708087 16.0655056 139.026451 17.2877981L139.203651 17.9911074 139.769201 17.9911074 139.522015 14.5098039 129.124113 14.5098039 129.124113 15.2131133C131.104283 15.2131133 131.422945 15.6575549 131.422945 18.2874019L131.422945 23.0284245C131.422945 25.4340234 131.152529 26.0400234 129.591087 26.1264166 128.107076 25.8890692 127.088252 25.0413553 125.694182 23.4357514L124.06722 21.5840672C126.260029 21.1761166 127.427165 19.7320711 127.427165 18.1021399 127.427165 16.0655056 125.765061 14.5098039 122.652898 14.5098039L116.428571 14.5098039 116.428571 15.2131133C118.408741 15.2131133 118.727105 15.6575549 118.727105 18.2874019L118.727105 23.0284245C118.727105 25.6579596 118.409039 26.139516 116.428571 26.139516L116.428571 26.8431373 123.466528 26.8431373 123.466528 26.139516C121.486358 26.139516 121.167696 25.6579596 121.167696 23.0284245L121.167696 21.6954115 121.768984 21.6954115 125.694479 26.8431373 140.229622 26.8431373 140.441964 23.3621456 139.910961 23.3621456 139.910961 23.3618337zM121.167399 20.5464129L121.167399 15.621064 122.61716 15.621064C124.208682 15.621064 124.91629 16.7691269 124.91629 18.1024518 124.91629 19.3989738 124.208682 20.5467248 122.61716 20.5467248L121.167399 20.5467248 121.167399 20.5464129zM147.771891 26.8431373C146.357767 26.8431373 145.120185 26.0794938 144.589963 25.6062371 144.413123 25.7884945 144.095168 26.3340416 144.024611 26.8431373L143.352679 26.8431373 143.352679 21.8238587 144.059741 21.8238587C144.342863 24.2244498 145.96866 25.6429949 148.054716 25.6429949 149.186016 25.6429949 150.105345 24.9883996 150.105345 23.8973053 150.105345 22.9517108 149.292298 22.2239062 147.842746 21.5328594L145.827545 20.5508133C144.413123 19.8591539 143.352679 18.6587052 143.352679 17.0585154 143.352679 15.3125195 144.943643 13.8213778 147.135684 13.8213778 148.302411 13.8213778 149.292 14.2578768 149.893375 14.7669724 150.069918 14.6214728 150.246758 14.221119 150.35304 13.7843137L151.024675 13.7843137 151.024675 18.0770129 150.282185 18.0770129C150.03449 16.3671623 149.115458 14.9486173 147.241967 14.9486173 146.25208 14.9486173 145.332453 15.5306159 145.332453 16.4403716 145.332453 17.3859662 146.074942 17.8950618 147.772189 18.695463L149.716238 19.6775091C151.413485 20.5140555 152.084821 21.8606165 152.084821 22.9517108 152.084821 25.2429474 150.140475 26.8431373 147.771891 26.8431373zM158.687368 26.8431373C157.272946 26.8431373 156.035364 26.0794938 155.505439 25.6062371 155.328599 25.7884945 155.010645 26.3340416 154.940087 26.8431373L154.268155 26.8431373 154.268155 21.8238587 154.975217 21.8238587C155.258042 24.2244498 156.884136 25.6429949 158.970192 25.6429949 160.101492 25.6429949 161.020821 24.9883996 161.020821 23.8973053 161.020821 22.9517108 160.207774 22.2239062 158.757925 21.5328594L156.742723 20.5508133C155.328599 19.8591539 154.267857 18.6587052 154.267857 17.0585154 154.267857 15.3125195 155.858821 13.8213778 158.050863 13.8213778 159.21759 13.8213778 160.207179 14.2578768 160.808554 14.7669724 160.985096 14.6214728 161.161936 14.221119 161.267623 13.7843137L161.939556 13.7843137 161.939556 18.0770129 161.197364 18.0770129C160.949669 16.3671623 160.030637 14.9486173 158.157145 14.9486173 157.167258 14.9486173 156.247631 15.5306159 156.247631 16.4403716 156.247631 17.3859662 156.990121 17.8950618 158.687368 18.695463L160.631416 19.6775091C162.328663 20.5140555 163 21.8606165 163 22.9517108 163 25.2429474 161.055654 26.8431373 158.687368 26.8431373zM2.6273811 18.4278049C2.6273811 24.6853171 6.27487881 30.0930325 11.5640371 32.6556585L4.00020884 11.9940163C3.1203922 13.9601301 2.6273811 16.1359106 2.6273811 18.4278049zM29.1884299 17.6300488C29.1884299 15.6762683 28.4845162 14.3232114 27.8807737 13.270065 27.0769906 11.9678455 26.3235948 10.865065 26.3235948 9.56284553 26.3235948 8.10961789 27.4290983 6.75686179 28.9862772 6.75686179 29.0565781 6.75686179 29.1232583 6.76558537 29.1917488 6.76949593 26.3706632 4.19273171 22.6121324 2.61947967 18.4839941 2.61947967 12.9444079 2.61947967 8.07071853 5.45313821 5.23545209 9.74513821 5.60747332 9.75626829 5.95807241 9.76408943 6.25587043 9.76408943 7.91442737 9.76408943 10.4817661 9.56344715 10.4817661 9.56344715 11.33654 9.51321138 11.4373146 10.7648943 10.5834459 10.8656667 10.5834459 10.8656667 9.72444795 10.966439 8.76859778 11.016374L14.5429225 28.1401545 18.0130086 17.7642114 15.5425221 11.0157724C14.6886534 10.9658374 13.8797411 10.865065 13.8797411 10.865065 13.0252689 10.8151301 13.1254401 9.51260976 13.9799122 9.56284553 13.9799122 9.56284553 16.5985434 9.7634878 18.1566275 9.7634878 19.8148827 9.7634878 22.3825232 9.56284553 22.3825232 9.56284553 23.2379005 9.51260976 23.3383734 10.7642927 22.484203 10.865065 22.484203 10.865065 21.6233947 10.9658374 20.6693549 11.0157724L26.3996284 28.0099024 27.9812466 22.740561C28.6667553 20.5539512 29.1884299 18.9834065 29.1884299 17.6300488z"/>
    <path d="M18.7621803 19.8106423L14.0046533 33.5935935C15.4251529 34.0099187 16.9274187 34.2376341 18.4839941 34.2376341 20.3305229 34.2376341 22.1013198 33.919374 23.7496182 33.3415122 23.7070757 33.2738293 23.6684555 33.201935 23.6367748 33.1237236L18.7621803 19.8106423zM32.3975279 10.8431057C32.4657167 11.3466667 32.5043369 11.8872276 32.5043369 12.4686992 32.5043369 14.072935 32.2038234 15.8763089 31.2986622 18.1312033L26.4551449 32.0928374C31.1692242 29.3521301 34.3400037 24.2602683 34.3400037 18.4281057 34.3403054 15.6795772 33.63609 13.0949919 32.3975279 10.8431057z"/>
    <path d="M18.4839941,0 C8.29218129,0 0,8.26664228 0,18.4278049 C0,28.5901707 8.29218129,36.8565122 18.4839941,36.8565122 C28.6755052,36.8565122 36.9688934,28.5901707 36.9688934,18.4278049 C36.9685917,8.26664228 28.6755052,0 18.4839941,0 Z M18.4839941,36.0118293 C8.75954617,36.0118293 0.847532557,28.1236098 0.847532557,18.4278049 C0.847532557,8.73260163 8.75924445,0.84498374 18.4839941,0.84498374 C28.2081404,0.84498374 36.1195505,8.73260163 36.1195505,18.4278049 C36.1195505,28.1236098 28.2081404,36.0118293 18.4839941,36.0118293 Z"/>
  </g>
</svg>
